<svg width="508" height="434" viewBox="0 0 508 434" fill="none" xmlns="http://www.w3.org/2000/svg">
<path d="M292 36.8125C180.166 36.8125 89.5 122.861 89.5 229L89.5067 229.34L89.5 229.679C89.5 335.446 179.66 421.188 290.886 421.188L291.318 421.175L292 421.188C403.834 421.188 494.5 335.139 494.5 229C494.5 122.861 403.834 36.8125 292 36.8125ZM481 229C481 244.337 478.961 259.218 475.154 273.421C473.393 272.268 468.735 277.034 467.588 270.718C466.15 262.876 456.835 257.431 451.82 261.179C446.805 264.926 432.474 275.823 431.766 282.64C431.043 289.449 424.948 297.624 422.093 291.845C419.217 286.054 410.631 267.995 410.982 263.229C411.333 258.462 407.027 264.933 400.601 255.394C394.148 245.855 383.044 254.023 374.087 249.257C365.13 244.484 355.099 238.014 350.077 235.976C345.075 233.926 359.034 255.048 360.83 252.325C362.632 249.602 369.787 254.369 371.94 254.369C374.093 254.369 379.817 259.135 376.24 263.568C372.662 268.001 340.782 286.413 337.556 281.621C334.316 276.829 315.348 239.718 312.115 241.992C308.888 244.266 332.183 282.979 336.125 285.362C340.053 287.752 351.886 285.708 357.61 283.325C363.348 280.942 345.791 309.898 338.278 313.306C330.758 316.708 324.67 327.272 327.883 332.038C331.11 336.804 331.467 354.864 324.67 357.253C317.853 359.63 315.348 363.378 317.495 367.811C319.634 372.231 312.486 379.72 309.26 384.492C306.026 389.259 293.499 399.137 292.419 401.866C291.352 404.595 275.949 403.91 269.846 403.91C263.765 403.91 268.415 396.754 267.693 390.63C266.991 384.492 261.618 378.701 261.618 375.639C261.618 372.57 259.816 365.415 257.318 362.013C254.814 358.598 254.085 352.128 256.596 348.387C259.114 344.633 260.896 333.742 255.894 328.97C250.872 324.203 245.135 316.022 249.083 309.552C253.025 303.082 244.784 303.767 237.98 300.692C231.169 297.624 217.196 301.717 210.035 302.742C202.866 303.761 195.711 301.038 193.558 297.624C191.412 294.222 186.754 285.708 181.982 283.658C177.223 281.621 179.95 272.761 182.812 269.359C185.688 265.958 179.95 259.481 182.812 256.745C185.688 254.023 187.47 244.151 193.2 241.992C198.938 239.839 197.858 238.36 198.033 233.247C198.209 228.135 204.479 228.135 205.546 225.413C206.626 222.683 209.846 221.325 216.312 221.325C222.758 221.325 233.673 217.744 238.871 216.553C244.068 215.361 253.025 213.657 252.303 218.43C251.588 223.196 251.77 228.641 255.165 228.641C258.574 228.641 263.232 230.518 268.605 233.696C273.978 236.867 274.153 234.272 274.875 230.691C275.597 227.11 283.11 228.475 290.886 231.883C298.662 235.291 309.267 232.901 312.655 232.568C316.064 232.216 317.501 222.517 316.604 219.282C315.699 216.047 310.333 220.813 306.931 218.769C303.529 216.732 298.865 219.282 295.469 216.38C292.061 213.49 291.521 206.674 295.469 206.508C299.405 206.335 301.383 205.143 303.705 202.593C306.04 200.037 314.815 198.506 318.217 201.056C321.612 203.612 326.641 205.316 329.672 202.42C332.716 199.531 323.597 193.913 321.612 192.375C319.641 190.844 321.254 185.905 319.29 185.905C317.312 185.905 315.699 186.751 316.779 189.14C317.853 191.523 311.048 195.777 309.962 193.4C308.895 191.011 307.107 186.418 304.42 186.418C301.734 186.418 298.156 198 297.974 199.871C297.791 201.741 293.134 204.81 289.381 204.81C285.628 204.81 285.628 208.904 287.592 210.781C289.563 212.651 288.126 220.147 284.548 220.576C280.964 221.011 279.708 219.807 279.175 216.905C278.642 214.016 275.057 214.355 274.875 208.391C274.693 202.427 270.751 199.538 268.247 196.809C265.743 194.08 259.29 186.078 256.785 189.659C254.281 193.24 265.742 200.902 268.78 202.939C271.838 204.983 271.298 209.41 269.685 210.435C268.071 211.46 265.027 219.807 263.238 220.48C261.436 221.159 259.728 217.943 259.728 217.943C257.042 216.924 263.481 213.856 264.561 212.325C265.628 210.793 253.282 200.063 251.054 196.994C248.827 193.926 239.31 199.544 235.017 197.507C230.717 195.47 224.264 205.169 223.737 210.787C223.19 216.412 216.204 217.936 209.758 217.936C203.319 217.936 199.012 213.343 201.172 208.743C203.319 204.144 200.092 196.482 203.858 195.969C207.618 195.463 218.351 195.969 220.504 190.351C222.651 184.733 210.291 179.621 215.138 178.602C219.964 177.577 227.497 170.434 232.87 166.34C238.229 162.253 238.77 157.148 243.602 156.789C248.449 156.436 242.536 147.942 246.836 145.392C251.142 142.836 252.209 154.591 255.435 154.591C258.662 154.591 265.095 153.566 270.474 156.123C275.854 158.679 277.461 153.566 279.614 146.917C281.76 140.28 287.133 136.699 297.872 131.593C308.618 126.481 285.527 133.124 281.22 128.012C276.921 122.9 282.833 111.657 285.527 103.719C288.213 95.7756 276.927 111.657 271.014 119.838C265.094 128.012 272.628 131.587 272.081 137.205C271.548 142.83 261.888 149.466 261.888 149.466C257.588 149.979 258.122 141.805 255.975 138.23C253.822 134.655 250.055 136.186 244.142 140.273C238.229 144.361 237.696 130.568 236.09 124.943C234.49 119.331 245.762 112.169 251.061 108.351C256.353 104.52 265.094 86.115 274.774 71.8163C284.454 57.5175 298.419 64.6605 302.179 70.2852C305.952 75.897 315.605 72.3223 324.751 82.5467C333.897 92.7711 322.598 97.358 312.405 93.2067C302.179 89.0555 314.545 103.495 320.445 107.582C326.357 111.663 329.584 98.383 331.737 95.3208C333.884 92.2522 341.936 93.7897 347.843 85.6089C353.763 77.4345 367.188 78.972 374.856 79.8689C382.531 80.7722 380.621 75.3909 375.788 70.9898C372.21 67.7355 379.527 70.5863 388.14 74.5773C443.713 105.795 481 163.253 481 229ZM211.284 167.961C209.502 166.212 213.086 159.326 214.692 157.282C216.312 155.238 210.21 155.918 210.581 158.82C210.939 161.709 208.246 166.142 204.486 167.333C200.727 168.525 196.44 168.179 198.58 164.944C200.72 161.709 198.756 158.813 197.142 155.745C195.536 152.676 206.093 150.805 208.253 148.935C210.399 147.064 204.857 145.866 205.026 142.977C205.208 140.075 206.464 137.525 208.597 137.186C210.75 136.846 212.762 135.539 214.692 135.655C220.612 136 218.803 148.768 220.963 152.862C223.109 156.943 229.205 161.888 228.665 165.456C228.125 169.037 226.977 171.081 222.59 170.056C218.182 169.031 211.128 175.335 208.428 174.143C205.735 172.945 213.086 169.71 211.284 167.961ZM172.687 96.333C178.067 98.8827 182.353 94.2573 186.106 93.2644C190.554 92.0984 193.092 107.063 188.799 106.551C184.499 106.038 179.666 114.725 173.456 114.213C167.246 113.7 169.994 109.62 163.008 103.489C161.509 102.169 160.895 100.977 160.841 99.9333C162.333 98.5687 163.817 97.1978 165.363 95.8845C167.78 95.2759 170.648 95.3656 172.687 96.333ZM340.776 353.486C345.791 352.468 344.826 343.409 349.375 342.929C359.048 341.91 349.733 367.452 346.155 374.608C342.571 381.763 341.126 381.418 337.718 376.991C334.296 372.57 335.402 365.408 337.718 362.007C340.026 358.592 335.754 354.511 340.776 353.486Z" fill="#2F4F4F"/>
<path d="M33.7207 334.249C-11.9913 269.195 -9.49127 146.024 49.0086 97.8254M49.0086 97.8254L33.7207 95.2361M49.0086 97.8254L47.7075 118.91" stroke="#2F4F4F" stroke-width="3" stroke-linecap="round" stroke-dasharray="6 6"/>
<path fill-rule="evenodd" clip-rule="evenodd" d="M70.9023 0.168405C69.8928 0.732959 69.9236 1.7161 71.0462 4.76723C71.5063 6.01774 71.9774 7.3706 72.0932 7.77358C72.2091 8.17656 72.3328 8.58351 72.3682 8.67805C72.4121 8.79523 72.267 8.76478 71.9114 8.5821C71.13 8.18078 70.4333 8.22428 69.9564 8.7044C69.5778 9.08563 69.5705 9.11659 69.6303 10.0796C69.6737 10.779 69.8578 11.5721 70.265 12.8131L70.8387 14.5615L70.3414 14.3006C69.8061 14.0196 69.116 14.0423 68.7441 14.3529C68.468 14.5834 68.2034 15.2641 68.2034 15.7437C68.2034 16.4518 68.5853 17.6816 69.2286 19.045C69.5732 19.7752 69.8552 20.394 69.8552 20.4202C69.8552 20.4463 69.7131 20.4677 69.5395 20.4677C69.039 20.4677 68.4536 21.0832 68.3721 21.695C68.2855 22.3452 68.665 23.9099 69.274 25.4138L69.7195 26.5139L69.1838 26.4402C66.2637 26.0378 57.8731 26.0215 54.3538 26.4114C49.552 26.9434 44.6472 27.9737 40.5043 29.3208C39.6307 29.6048 38.7669 29.914 38.5845 30.0078C37.8566 30.3823 37.798 31.5206 38.468 32.2748L38.8322 32.685L43.1306 32.7002C46.1936 32.7111 47.6977 32.7662 48.3636 32.8921L49.298 33.0688L49.5333 33.6942C49.8084 34.4256 50.1783 34.8598 50.7961 35.1767C51.5758 35.5766 53.9875 36.2991 55.4974 36.5852C56.301 36.7376 57.1556 36.9023 57.3965 36.9516L57.8345 37.041L56.7356 37.7848C54.1006 39.5684 51.358 42.3612 49.7464 44.9023L49.2189 45.7338H47.4982C45.516 45.7338 45.0126 45.873 44.758 46.4914C44.5912 46.8967 44.6539 47.6538 44.9407 48.6939C45.1394 49.4144 45.1274 49.4468 44.5622 49.7033C43.5019 50.1847 43.1254 51.1344 43.7021 51.8727C44.2736 52.6043 45.69 52.9258 49.0503 53.0867C52.779 53.2652 53.8968 53.5197 55.9721 54.6617C57.0508 55.2554 57.1523 55.3446 57.2281 55.7659C57.3987 56.7137 58.0022 57.5552 58.928 58.1361C59.1726 58.2895 60.2875 58.8065 61.4057 59.2848C64.1327 60.4515 65.2919 61.0692 66.0608 61.7651C67.1226 62.7263 67.1166 62.7764 65.7023 64.8284C64.3873 66.7362 64.2533 67.3754 65.0143 68.1094C65.5046 68.5825 66.1432 68.6453 67.2486 68.3291C67.7368 68.1895 68.1529 68.092 68.1734 68.1126C68.1937 68.1332 68.148 68.3158 68.0715 68.5183C67.6255 69.6992 68.9327 70.7811 70.0823 70.1825C70.5658 69.9308 70.6175 69.9283 70.6175 70.1571C70.6175 70.4299 71.3573 71 71.7114 71C72.1932 71 72.757 70.7091 73.7714 69.9369C74.633 69.2811 74.7301 69.2387 75.0827 69.3624C76.075 69.7107 77.3192 69.1494 78.0805 68.0098C78.6412 67.1705 78.7854 66.5354 78.7261 65.1661C78.6827 64.1619 78.6167 63.8804 78.2466 63.1193C77.4462 61.4732 75.3453 59.7121 72.5408 58.3365C71.9023 58.0232 71.3799 57.7294 71.3799 57.6835C71.3799 57.6376 71.6229 57.5613 71.9199 57.514C72.8587 57.3645 75.3598 56.4618 76.6708 55.7994C79.0388 54.603 80.1413 53.7571 82.69 51.1815C85.1396 48.7058 86.1342 47.9214 88.281 46.7724C90.2076 45.7411 93.0947 44.7281 95.4442 44.2586L96.1929 44.109L96.1201 42.2988C96.0463 40.4633 95.6251 37.5705 95.39 37.2854C95.3194 37.1996 95.077 37.0931 94.8514 37.0487C94.6258 37.0044 93.9132 36.763 93.2678 36.5124C92.233 36.1106 91.9499 35.9255 90.8728 34.9465C89.2998 33.5168 88.3651 32.8571 86.9164 32.1536C85.8205 31.6215 83.6501 30.9579 83.0055 30.9579C82.7925 30.9579 82.7014 30.8643 82.6467 30.5891C82.4993 29.847 82.78 29.3359 84.1084 27.9277C85.5677 26.3809 86.0346 25.5407 86.3148 23.9585C86.6459 22.0882 86.5197 20.5521 85.7956 17.6406C84.5395 12.5901 82.5097 8.83796 79.1328 5.32475C77.1804 3.29335 75.4801 1.94829 73.2276 0.653259C72.0347 -0.0324451 71.4716 -0.149885 70.9023 0.168405ZM73.0031 2.58295C76.9329 5.05341 80.0043 8.38969 82.0373 12.3963C82.8835 14.064 83.5123 15.8031 84.123 18.1649C84.6049 20.0288 84.6361 20.2593 84.6419 22.0028C84.6503 24.516 84.4997 24.9015 82.8134 26.6867C81.34 28.2466 80.9094 29.0157 80.9094 30.0875V30.83H80.2741C79.9247 30.83 79.6388 30.7788 79.6388 30.7161C79.6388 30.6536 79.3881 30.2593 79.0816 29.8402C78.0042 28.3666 76.2336 27.4886 73.3323 26.9892C72.5127 26.8481 71.8308 26.7191 71.817 26.7025C71.5712 26.4093 70.2363 23.0986 70.2363 22.7826C70.2363 22.7109 70.438 22.7404 70.6991 22.8502C71.2406 23.078 71.6527 23.0047 72.0116 22.6168C72.4894 22.1006 72.3803 21.6555 71.0928 18.8686C70.6378 17.8835 70.2239 16.9336 70.1731 16.7577C70.0889 16.4664 70.1253 16.481 70.5814 16.9221C71.4185 17.7318 72.4404 17.705 72.7862 16.8645C73.0477 16.2291 72.8473 15.0299 72.0872 12.6805C71.6918 11.4582 71.3914 10.4349 71.4198 10.4064C71.4481 10.3777 71.771 10.5575 72.1371 10.8055C72.8361 11.2791 73.1973 11.3501 73.7105 11.1147C74.7495 10.6381 74.3973 8.58005 72.3469 3.14994C72.0123 2.26338 71.96 2.04578 72.0819 2.04578C72.1185 2.04578 72.5329 2.28756 73.0031 2.58295ZM68.4575 28.1338C72.2816 28.5278 74.8522 29.0144 76.0281 29.5671C78.4926 30.7252 79.3778 34.0874 77.8293 36.4074C76.9691 37.696 75.5716 38.4248 73.9854 38.4119C72.9961 38.404 72.2688 38.1665 71.3836 37.5628C70.5702 37.008 70.1872 37.0489 69.2075 37.795C67.6188 39.0052 65.4575 39.7851 63.6927 39.7851C61.726 39.7851 60.2648 38.5044 59.9401 36.4959C59.8756 36.0965 59.7479 35.6944 59.6564 35.6024C59.5649 35.5103 58.2917 35.2073 56.8267 34.9288C53.864 34.3657 52.0375 33.881 51.5585 33.5307C51.3311 33.3643 51.2212 33.1386 51.1715 32.7358C51.0298 31.5865 50.9232 31.5249 48.382 31.1242C47.2696 30.949 46.2596 30.8979 44.1513 30.9107C42.628 30.9199 41.3995 30.9094 41.4215 30.8873C41.4434 30.8653 42.1751 30.6455 43.0475 30.3991C47.4169 29.1646 51.614 28.4274 56.895 27.9664C58.0297 27.8674 67.1544 27.9994 68.4575 28.1338ZM114.517 32.1174C113.888 32.33 112.532 32.9255 111.504 33.4408L109.634 34.3778L109.169 34.06C107.92 33.2049 105.899 32.9945 104.5 33.5737C103.441 34.0123 102.806 34.4926 102.11 35.3842C101.145 36.6187 100.201 37.1372 98.5283 37.3505C98.0508 37.4112 97.6387 37.4825 97.6128 37.5087C97.5868 37.5349 97.6528 38.0435 97.7597 38.6387C97.8666 39.2341 97.9926 40.6422 98.04 41.768C98.1129 43.5039 98.155 43.8057 98.3166 43.7543C98.4214 43.7209 100.508 43.6877 102.954 43.6806C107.961 43.666 108.122 43.6419 109.428 42.7213L110.145 42.2158L112.458 42.2147C116.312 42.213 117.66 41.9531 117.938 41.1587C118.237 40.3031 117.54 39.8569 114.113 38.7078L112.131 38.0435L113.387 37.1362C116.934 34.5749 117.949 33.1049 116.899 32.0484C116.471 31.6173 115.952 31.6324 114.517 32.1174ZM84.2044 33.0044C86.3824 33.6275 88.2604 34.7906 89.9681 36.5741C91.3005 37.9657 91.6137 38.6664 91.632 40.2968C91.642 41.1895 91.5918 41.4917 91.3513 41.9846C90.8902 42.93 89.6845 43.9593 87.9563 44.8831C85.1105 46.4041 83.3709 47.7302 81.8274 49.5554C77.8974 54.2023 71.5128 56.8044 65.5986 56.1696C62.4149 55.8278 60.572 55.192 57.0221 53.2101C55.4627 52.3394 53.8181 51.7563 52.3657 51.5589C51.7964 51.4815 50.2456 51.3694 48.9193 51.3099C47.5932 51.2503 46.4009 51.1389 46.2698 51.0622C46.1386 50.9855 46.0985 50.921 46.1804 50.9188C46.2625 50.9168 46.5055 50.766 46.7204 50.5838C47.1847 50.1905 47.2204 49.7974 46.873 48.9048C46.742 48.568 46.5945 48.1054 46.5454 47.8767L46.4559 47.4609L47.4508 47.464C48.3234 47.4668 49.0845 47.5727 49.8024 47.7912C49.9609 47.8394 50.1568 47.6163 50.5648 46.923C52.3638 43.8653 55.2147 40.8766 58.1527 38.9681C58.5946 38.6811 58.7317 38.6415 58.8084 38.7793C59.0117 39.1443 59.7703 40.0287 60.1545 40.3488C60.3748 40.5322 60.9466 40.869 61.4251 41.0973C62.2622 41.4964 62.3528 41.5118 63.8198 41.5009C65.087 41.4914 65.5333 41.4318 66.4623 41.1478C67.7298 40.7604 68.8704 40.2164 69.7745 39.568L70.3926 39.1247L71.1721 39.5074C72.2533 40.038 72.8087 40.1679 73.9846 40.1651C75.2435 40.1621 75.916 40.0108 76.952 39.4974C79.1096 38.428 80.5412 35.902 80.3682 33.4693L80.3055 32.5848L81.7827 32.6595C82.6923 32.7056 83.6229 32.8381 84.2044 33.0044ZM114.199 34.4302C113.955 34.6455 113.212 35.2465 112.549 35.7659L111.343 36.7102L111.11 36.2527C110.982 36.0011 110.897 35.7754 110.921 35.7512C111.031 35.6404 114.404 34.029 114.517 34.0335C114.587 34.0363 114.444 34.2148 114.199 34.4302ZM113.861 40.2971C114.043 40.3708 113.651 40.4113 112.706 40.4167C111.899 40.4212 111.277 40.3727 111.277 40.3051C111.277 40.2394 111.331 40.0416 111.397 39.8658L111.518 39.546L112.552 39.8658C113.121 40.0417 113.71 40.2358 113.861 40.2971ZM66.7689 59.6302C69.4559 60.8062 71.7631 62.037 72.9477 62.9265C74.0377 63.745 74.4305 64.8513 74.0358 65.9912L73.8966 66.3936L73.5851 66.1471C72.7984 65.524 72.0694 65.7212 70.9669 66.8558L70.2363 67.6077V67.2102C70.2363 66.9917 70.1196 66.6633 69.9767 66.4805C69.5787 65.9709 69.0084 65.9263 67.7922 66.3094C67.2194 66.49 66.7297 66.6166 66.7042 66.5909C66.6788 66.5652 66.97 66.0931 67.3516 65.5419C68.3218 64.14 68.5846 63.568 68.5846 62.858C68.5846 61.6678 67.7099 60.5586 65.9043 59.4594C65.4662 59.1928 65.1445 58.9746 65.1893 58.9746C65.2341 58.9746 65.9449 59.2696 66.7689 59.6302ZM73.9846 61.2171C76.1012 62.6325 77.0033 63.9048 77.0123 65.4873C77.0175 66.3897 76.8318 66.8929 76.3137 67.3798C76.0434 67.634 75.0646 68.1301 75.0646 68.0131C75.0646 67.9866 75.2449 67.5685 75.4654 67.0838C75.7695 66.415 75.8807 65.9632 75.9266 65.2091C75.9824 64.2898 75.957 64.1545 75.5862 63.3961C75.0749 62.3503 74.158 61.4989 72.4739 60.5062C70.7194 59.4721 70.6347 59.4005 71.8881 60.0111C72.4821 60.3005 73.4255 60.8431 73.9846 61.2171ZM72.9046 68.2338C72.9046 68.4185 72.379 68.9531 72.1973 68.9531C72.0045 68.9531 71.8589 68.5971 71.9702 68.3979C72.0157 68.3163 72.1717 68.117 72.3167 67.9549C72.5636 67.6791 72.5909 67.6745 72.7425 67.8834C72.8317 68.0061 72.9046 68.1638 72.9046 68.2338Z" fill="#2F4F4F"/>
</svg>
