<svg width="96" height="85" viewBox="0 0 96 85" fill="none" xmlns="http://www.w3.org/2000/svg">
<path fill-rule="evenodd" clip-rule="evenodd" d="M39.4827 0.201611C38.2713 0.877487 38.3084 2.05449 39.6555 5.70725C40.2076 7.20434 40.7729 8.82396 40.9118 9.3064C41.0509 9.78884 41.1994 10.276 41.2418 10.3892C41.2945 10.5295 41.1204 10.493 40.6936 10.2743C39.7559 9.79389 38.9199 9.84597 38.3477 10.4208C37.8933 10.8772 37.8847 10.9142 37.9563 12.0672C38.0085 12.9045 38.2294 13.8539 38.7181 15.3397L39.4065 17.4328L38.8097 17.1204C38.1673 16.7841 37.3393 16.8112 36.893 17.183C36.5616 17.459 36.244 18.274 36.244 18.8481C36.244 19.6959 36.7024 21.1681 37.4743 22.8003C37.8879 23.6745 38.2262 24.4153 38.2262 24.4467C38.2262 24.478 38.0557 24.5036 37.8474 24.5036C37.2469 24.5036 36.5443 25.2404 36.4465 25.9729C36.3425 26.7513 36.798 28.6245 37.5288 30.425L38.0633 31.742L37.4205 31.6538C33.9164 31.172 23.8478 31.1525 19.6246 31.6193C13.8624 32.2561 7.97664 33.4897 3.00514 35.1024C1.95689 35.4424 0.920232 35.8126 0.701435 35.9248C-0.172078 36.3731 -0.242367 37.7359 0.561618 38.6389L0.998603 39.1299L6.15673 39.1481C9.83238 39.1612 11.6372 39.2272 12.4363 39.3779L13.5576 39.5894L13.84 40.3382C14.1701 41.2138 14.6139 41.7336 15.3554 42.1129C16.2909 42.5917 19.185 43.4567 20.9968 43.7992C21.9612 43.9816 22.9868 44.1788 23.2758 44.2378L23.8014 44.3449L22.4827 45.2353C19.3207 47.3706 16.0296 50.7141 14.0957 53.7563L13.4627 54.7518H11.3978C9.01924 54.7518 8.41515 54.9184 8.1096 55.6588C7.9094 56.144 7.98472 57.0503 8.32885 58.2955C8.56732 59.1581 8.55283 59.1968 7.87464 59.5039C6.60226 60.0802 6.15048 61.2172 6.84255 62.1011C7.52837 62.977 9.22798 63.3619 13.2604 63.5546C17.7349 63.7682 19.0761 64.0728 21.5665 65.44C22.861 66.1508 22.9828 66.2576 23.0737 66.7619C23.2784 67.8967 24.0027 68.9041 25.1136 69.5996C25.4071 69.7832 26.745 70.4021 28.0868 70.9748C31.3593 72.3716 32.7503 73.111 33.6729 73.9442C34.9471 75.0948 34.94 75.1549 33.2428 77.6115C31.6647 79.8955 31.504 80.6607 32.4172 81.5395C33.0055 82.1058 33.7719 82.181 35.0984 81.8024C35.6842 81.6353 36.1835 81.5186 36.2081 81.5433C36.2325 81.5679 36.1776 81.7865 36.0858 82.0289C35.5506 83.4427 37.1192 84.738 38.4988 84.0213C39.079 83.7199 39.141 83.717 39.141 83.9909C39.141 84.3175 40.0287 85 40.4537 85C41.0318 85 41.7083 84.6517 42.9257 83.7273C43.9596 82.9422 44.0761 82.8913 44.4992 83.0395C45.69 83.4565 47.183 82.7844 48.0966 81.4201C48.7695 80.4154 48.9425 79.655 48.8713 78.0158C48.8192 76.8135 48.7401 76.4766 48.2959 75.5653C47.3355 73.5947 44.8144 71.4863 41.449 69.8394C40.6828 69.4644 40.0559 69.1127 40.0559 69.0577C40.0559 69.0027 40.3475 68.9115 40.7039 68.8548C41.8305 68.6758 44.8317 67.5951 46.4049 66.8021C49.2466 65.3698 50.5696 64.3571 53.628 61.2736C56.5675 58.3097 57.7611 57.3707 60.3372 55.9951C62.6492 54.7605 66.1136 53.5477 68.933 52.9856L69.8315 52.8066L69.7441 50.6394C69.6556 48.4419 69.1501 44.9788 68.868 44.6374C68.7833 44.5348 68.4923 44.4072 68.2217 44.354C67.9509 44.3011 67.0959 44.0121 66.3213 43.712C65.0796 43.231 64.7399 43.0093 63.4474 41.8374C61.5598 40.1257 60.4382 39.3359 58.6997 38.4937C57.3846 37.8567 54.7801 37.0623 54.0066 37.0623C53.751 37.0623 53.6417 36.9502 53.576 36.6208C53.3991 35.7323 53.736 35.1205 55.33 33.4345C57.0812 31.5827 57.6415 30.5769 57.9777 28.6827C58.3751 26.4436 58.2237 24.6046 57.3547 21.119C55.8474 15.0727 53.4116 10.5807 49.3594 6.3747C47.0165 3.94274 44.9761 2.33246 42.2731 0.782071C40.8417 -0.0388428 40.1659 -0.17944 39.4827 0.201611ZM42.0037 3.09227C46.7195 6.04985 50.4052 10.044 52.8448 14.8407C53.8602 16.8372 54.6148 18.9192 55.3476 21.7468C55.9259 23.9781 55.9633 24.2541 55.9703 26.3414C55.9803 29.3502 55.7997 29.8116 53.7761 31.9489C52.008 33.8163 51.4913 34.7371 51.4913 36.0203V36.9092H50.7289C50.3096 36.9092 49.9665 36.8479 49.9665 36.7729C49.9665 36.698 49.6657 36.2259 49.2979 35.7242C48.005 33.96 45.8803 32.9089 42.3987 32.311C41.4153 32.142 40.597 31.9877 40.5804 31.9678C40.2855 31.6167 38.6836 27.6532 38.6836 27.2749C38.6836 27.1891 38.9256 27.2244 39.2389 27.3559C39.8887 27.6285 40.3832 27.5408 40.8139 27.0764C41.3872 26.4584 41.2564 25.9256 39.7114 22.5891C39.1654 21.4098 38.6687 20.2726 38.6077 20.0621C38.5067 19.7133 38.5503 19.7308 39.0977 20.2589C40.1022 21.2282 41.3285 21.1962 41.7434 20.1899C42.0572 19.4292 41.8167 17.9935 40.9047 15.1808C40.4302 13.7176 40.0697 12.4925 40.1037 12.4583C40.1377 12.424 40.5252 12.6392 40.9646 12.9362C41.8033 13.5032 42.2368 13.5882 42.8526 13.3064C44.0994 12.7357 43.6768 10.2719 41.2163 3.77105C40.8147 2.70969 40.752 2.44917 40.8983 2.44917C40.9422 2.44917 41.4395 2.73863 42.0037 3.09227ZM36.549 33.6813C41.1379 34.153 44.2226 34.7356 45.6337 35.3972C48.5911 36.7837 49.6534 40.8088 47.7952 43.5863C46.7629 45.129 45.0859 46.0015 43.1824 45.9861C41.9953 45.9766 41.1225 45.6923 40.0603 44.9696C39.0843 44.3054 38.6246 44.3544 37.449 45.2476C35.5425 46.6964 32.949 47.6301 30.8313 47.6301C28.4712 47.6301 26.7177 46.0968 26.3282 43.6923C26.2507 43.2141 26.0975 42.7327 25.9877 42.6226C25.8779 42.5124 24.35 42.1495 22.592 41.8161C19.0368 41.1421 16.845 40.5618 16.2702 40.1424C15.9973 39.9432 15.8654 39.673 15.8058 39.1907C15.6358 37.8148 15.5078 37.7411 12.4584 37.2614C11.1235 37.0516 9.91151 36.9905 7.38154 37.0058C5.55356 37.0168 4.07945 37.0043 4.10583 36.9778C4.13206 36.9514 5.01014 36.6883 6.05702 36.3933C11.3002 34.9154 16.3368 34.0327 22.674 33.4809C24.0356 33.3624 34.9852 33.5204 36.549 33.6813ZM91.8201 38.4504C91.0654 38.7049 89.4382 39.4179 88.2042 40.0348L85.9606 41.1565L85.4032 40.776C83.9035 39.7523 81.4789 39.5004 79.8 40.1939C78.5287 40.7189 77.7677 41.294 76.9317 42.3613C75.7741 43.8393 74.6406 44.46 72.634 44.7153C72.061 44.7881 71.5665 44.8734 71.5354 44.9048C71.5041 44.9362 71.5834 45.545 71.7116 46.2576C71.8399 46.9704 71.9911 48.6562 72.048 50.004C72.1355 52.0821 72.186 52.4434 72.3799 52.3819C72.5057 52.3419 75.0101 52.3022 77.9452 52.2936C83.953 52.2762 84.1468 52.2474 85.7132 51.1453L86.5734 50.54L89.3492 50.5388C93.9739 50.5366 95.5923 50.2256 95.9251 49.2745C96.2839 48.2502 95.4483 47.716 91.3353 46.3403L88.9572 45.545L90.4648 44.4588C94.7206 41.3925 95.9384 39.6326 94.6793 38.3678C94.1655 37.8517 93.5418 37.8698 91.8201 38.4504ZM55.4453 39.5124C58.0588 40.2582 60.3125 41.6507 62.3618 43.7858C63.9606 45.4519 64.3364 46.2907 64.3584 48.2427C64.3704 49.3114 64.3102 49.6731 64.0216 50.2633C63.4682 51.3951 62.0214 52.6274 59.9475 53.7333C56.5326 55.5542 54.4451 57.1418 52.5929 59.3268C47.8769 64.8901 40.2153 68.0052 33.1184 67.2453C29.2979 66.8361 27.0864 66.0749 22.8265 63.7022C20.9552 62.6598 18.9818 61.9617 17.2389 61.7254C16.5556 61.6328 14.6947 61.4986 13.1032 61.4274C11.5119 61.356 10.0811 61.2226 9.92371 61.1309C9.76636 61.039 9.71818 60.9618 9.81652 60.9592C9.91502 60.9567 10.2065 60.7762 10.4645 60.5581C11.0217 60.0873 11.0645 59.6166 10.6476 58.548C10.4904 58.1448 10.3134 57.591 10.2544 57.3171L10.1471 56.8194L11.3409 56.8231C12.3881 56.8264 13.3014 56.9532 14.1629 57.2148C14.353 57.2726 14.5881 57.0055 15.0777 56.1754C17.2366 52.5148 20.6576 48.9368 24.1832 46.652C24.7135 46.3083 24.878 46.261 24.9701 46.4259C25.2141 46.8629 26.1243 47.9217 26.5854 48.3049C26.8498 48.5245 27.5359 48.9277 28.1101 49.201C29.1146 49.6788 29.2233 49.6972 30.9838 49.6842C32.5044 49.6728 33.04 49.6015 34.1547 49.2615C35.6758 48.7977 37.0445 48.1463 38.1294 47.3701L38.8711 46.8395L39.8066 47.2976C41.1039 47.9328 41.7704 48.0883 43.1815 48.0849C44.6922 48.0814 45.4993 47.9002 46.7424 47.2856C49.3315 46.0054 51.0494 42.9813 50.8419 40.0689L50.7666 39.01L52.5392 39.0994C53.6307 39.1546 54.7475 39.3132 55.4453 39.5124ZM91.4389 41.2193C91.1454 41.477 90.2544 42.1966 89.4586 42.8184L88.0121 43.9488L87.7323 43.4011C87.5785 43.0999 87.4762 42.8297 87.505 42.8008C87.637 42.6681 91.6852 40.739 91.8201 40.7443C91.904 40.7477 91.7325 40.9614 91.4389 41.2193ZM91.0332 48.243C91.2511 48.3312 90.7813 48.3797 89.6474 48.3862C88.6783 48.3915 87.9321 48.3335 87.9321 48.2526C87.9321 48.1739 87.9973 47.9371 88.0769 47.7267L88.2219 47.3438L89.4628 47.7267C90.1454 47.9373 90.8521 48.1696 91.0332 48.243ZM34.5226 71.3883C37.7471 72.7961 40.5157 74.2696 41.9372 75.3345C43.2453 76.3144 43.7166 77.6389 43.243 79.0035L43.0759 79.4853L42.7022 79.1902C41.758 78.4442 40.8833 78.6803 39.5603 80.0387L38.6836 80.9388V80.4629C38.6836 80.2013 38.5435 79.8082 38.3721 79.5893C37.8944 78.9793 37.2101 78.9258 35.7506 79.3846C35.0633 79.6007 34.4757 79.7523 34.445 79.7215C34.4145 79.6907 34.764 79.1256 35.2219 78.4656C36.3862 76.7873 36.7015 76.1026 36.7015 75.2526C36.7015 73.8276 35.6518 72.4997 33.4852 71.1838C32.9595 70.8647 32.5734 70.6034 32.6271 70.6034C32.6809 70.6034 33.5339 70.9566 34.5226 71.3883ZM43.1815 73.288C45.7214 74.9826 46.804 76.5057 46.8148 78.4002C46.821 79.4806 46.5981 80.0831 45.9765 80.666C45.652 80.9703 44.4775 81.5643 44.4775 81.4241C44.4775 81.3924 44.6939 80.8919 44.9584 80.3116C45.3235 79.5109 45.4569 78.97 45.5119 78.0673C45.5788 76.9667 45.5484 76.8046 45.1034 75.8967C44.4899 74.6447 43.3897 73.6254 41.3686 72.437C39.2633 71.199 39.1616 71.1132 40.6657 71.8442C41.3785 72.1907 42.5107 72.8404 43.1815 73.288ZM41.8855 81.6883C41.8855 81.9095 41.2547 82.5495 41.0367 82.5495C40.8054 82.5495 40.6307 82.1233 40.7642 81.8848C40.8188 81.7871 41.0061 81.5485 41.18 81.3544C41.4763 81.0242 41.5091 81.0187 41.691 81.2688C41.798 81.4157 41.8855 81.6045 41.8855 81.6883Z" fill="#2F4F4F"/>
</svg>
