<svg width="184" height="122" viewBox="0 0 184 122" fill="none" xmlns="http://www.w3.org/2000/svg">
<path fill-rule="evenodd" clip-rule="evenodd" d="M82.0827 0.201611C80.8713 0.877487 80.9084 2.05449 82.2555 5.70725C82.8076 7.20434 83.3729 8.82396 83.5118 9.3064C83.6509 9.78884 83.7994 10.276 83.8418 10.3892C83.8945 10.5295 83.7204 10.493 83.2936 10.2743C82.3559 9.79389 81.5199 9.84597 80.9477 10.4208C80.4933 10.8772 80.4846 10.9142 80.5563 12.0672C80.6085 12.9045 80.8294 13.8539 81.3181 15.3397L82.0065 17.4328L81.4097 17.1204C80.7673 16.7841 79.9393 16.8112 79.493 17.183C79.1617 17.459 78.844 18.274 78.844 18.8481C78.844 19.6959 79.3024 21.1681 80.0743 22.8003C80.4879 23.6745 80.8262 24.4153 80.8262 24.4467C80.8262 24.478 80.6557 24.5036 80.4474 24.5036C79.8469 24.5036 79.1443 25.2404 79.0465 25.9729C78.9425 26.7513 79.398 28.6245 80.1288 30.425L80.6633 31.742L80.0205 31.6538C76.5164 31.172 66.4478 31.1525 62.2246 31.6193C56.4624 32.2561 50.5766 33.4897 45.6051 35.1024C44.5569 35.4424 43.5202 35.8126 43.3014 35.9248C42.4279 36.3731 42.3576 37.7359 43.1616 38.6389L43.5986 39.1299L48.7567 39.1481C52.4324 39.1612 54.2372 39.2272 55.0363 39.3779L56.1576 39.5894L56.44 40.3382C56.7701 41.2138 57.2139 41.7336 57.9554 42.1129C58.8909 42.5917 61.785 43.4567 63.5968 43.7992C64.5612 43.9816 65.5868 44.1788 65.8758 44.2378L66.4014 44.3449L65.0827 45.2353C61.9207 47.3706 58.6296 50.7141 56.6957 53.7563L56.0627 54.7518H53.9978C51.6192 54.7518 51.0151 54.9184 50.7096 55.6588C50.5094 56.144 50.5847 57.0503 50.9289 58.2955C51.1673 59.1581 51.1528 59.1968 50.4746 59.5039C49.2023 60.0802 48.7505 61.2172 49.4426 62.1011C50.1284 62.977 51.828 63.3619 55.8604 63.5546C60.3349 63.7682 61.6761 64.0728 64.1665 65.44C65.461 66.1508 65.5828 66.2576 65.6737 66.7619C65.8784 67.8967 66.6027 68.9041 67.7136 69.5996C68.0071 69.7832 69.345 70.4021 70.6868 70.9748C73.9593 72.3716 75.3503 73.111 76.2729 73.9442C77.5471 75.0948 77.54 75.1549 75.8428 77.6115C74.2647 79.8955 74.104 80.6607 75.0172 81.5395C75.6055 82.1058 76.3719 82.181 77.6984 81.8024C78.2842 81.6353 78.7835 81.5186 78.8081 81.5433C78.8325 81.5679 78.7776 81.7865 78.6858 82.0289C78.1506 83.4427 79.7192 84.738 81.0988 84.0213C81.679 83.7199 81.741 83.717 81.741 83.9909C81.741 84.3175 82.6287 85 83.0536 85C83.6318 85 84.3083 84.6517 85.5257 83.7273C86.5596 82.9422 86.6761 82.8913 87.0992 83.0395C88.29 83.4565 89.783 82.7845 90.6966 81.4201C91.3695 80.4154 91.5425 79.655 91.4713 78.0158C91.4192 76.8135 91.34 76.4766 90.8959 75.5653C89.9355 73.5947 87.4144 71.4863 84.049 69.8394C83.2828 69.4644 82.6559 69.1127 82.6559 69.0577C82.6559 69.0027 82.9475 68.9115 83.3039 68.8548C84.4305 68.6758 87.4317 67.5951 89.0049 66.8021C91.8466 65.3698 93.1696 64.3571 96.228 61.2736C99.1675 58.3097 100.361 57.3707 102.937 55.9951C105.249 54.7605 108.714 53.5477 111.533 52.9856L112.432 52.8066L112.344 50.6394C112.256 48.4419 111.75 44.9788 111.468 44.6374C111.383 44.5348 111.092 44.4072 110.822 44.354C110.551 44.3011 109.696 44.0121 108.921 43.712C107.68 43.231 107.34 43.0094 106.047 41.8374C104.16 40.1257 103.038 39.3359 101.3 38.4937C99.9846 37.8567 97.3801 37.0623 96.6066 37.0623C96.351 37.0623 96.2417 36.9502 96.176 36.6208C95.9991 35.7323 96.336 35.1205 97.93 33.4345C99.6812 31.5827 100.242 30.5769 100.578 28.6827C100.975 26.4436 100.824 24.6046 99.9547 21.119C98.4474 15.0727 96.0117 10.5807 91.9594 6.3747C89.6165 3.94274 87.5761 2.33246 84.8731 0.782071C83.4417 -0.0388428 82.7659 -0.17944 82.0827 0.201611ZM84.6037 3.09227C89.3195 6.04986 93.0052 10.044 95.4448 14.8407C96.4602 16.8372 97.2148 18.9192 97.9476 21.7468C98.5259 23.9781 98.5633 24.2541 98.5703 26.3414C98.5803 29.3502 98.3997 29.8116 96.3761 31.9489C94.608 33.8163 94.0913 34.7371 94.0913 36.0203V36.9092H93.3289C92.9096 36.9092 92.5665 36.8479 92.5665 36.7729C92.5665 36.698 92.2657 36.2259 91.8979 35.7242C90.605 33.96 88.4803 32.9089 84.9987 32.311C84.0153 32.142 83.197 31.9877 83.1804 31.9678C82.8855 31.6167 81.2836 27.6532 81.2836 27.2749C81.2836 27.1891 81.5256 27.2244 81.8389 27.3559C82.4887 27.6285 82.9832 27.5408 83.4139 27.0764C83.9872 26.4584 83.8564 25.9256 82.3114 22.5891C81.7654 21.4098 81.2687 20.2726 81.2077 20.0621C81.1067 19.7133 81.1503 19.7308 81.6977 20.2589C82.7022 21.2282 83.9285 21.1962 84.3434 20.1899C84.6572 19.4292 84.4167 17.9935 83.5047 15.1808C83.0302 13.7176 82.6697 12.4925 82.7037 12.4583C82.7377 12.424 83.1252 12.6392 83.5646 12.9362C84.4033 13.5032 84.8368 13.5882 85.4526 13.3064C86.6994 12.7357 86.2768 10.2719 83.8163 3.77105C83.4147 2.70969 83.352 2.44917 83.4983 2.44917C83.5422 2.44917 84.0395 2.73863 84.6037 3.09227ZM79.149 33.6813C83.7379 34.153 86.8226 34.7356 88.2337 35.3972C91.1911 36.7837 92.2534 40.8088 90.3952 43.5863C89.3629 45.129 87.6859 46.0015 85.7824 45.9861C84.5953 45.9766 83.7225 45.6923 82.6603 44.9696C81.6843 44.3054 81.2246 44.3544 80.049 45.2476C78.1425 46.6964 75.549 47.6301 73.4313 47.6301C71.0712 47.6301 69.3177 46.0968 68.9282 43.6923C68.8507 43.2141 68.6975 42.7327 68.5877 42.6226C68.4779 42.5124 66.95 42.1495 65.192 41.8161C61.6368 41.1421 59.445 40.5618 58.8702 40.1424C58.5973 39.9432 58.4654 39.673 58.4058 39.1907C58.2358 37.8148 58.1078 37.7411 55.0584 37.2614C53.7235 37.0516 52.5115 36.9905 49.9815 37.0058C48.1536 37.0168 46.6795 37.0043 46.7058 36.9778C46.7321 36.9514 47.6101 36.6883 48.657 36.3933C53.9002 34.9154 58.9368 34.0327 65.274 33.4809C66.6356 33.3624 77.5852 33.5204 79.149 33.6813ZM134.42 38.4504C133.665 38.7049 132.038 39.4179 130.804 40.0348L128.561 41.1565L128.003 40.776C126.503 39.7523 124.079 39.5004 122.4 40.1939C121.129 40.7189 120.368 41.294 119.532 42.3613C118.374 43.8393 117.241 44.46 115.234 44.7153C114.661 44.7881 114.166 44.8734 114.135 44.9048C114.104 44.9362 114.183 45.545 114.312 46.2576C114.44 46.9704 114.591 48.6562 114.648 50.004C114.736 52.0821 114.786 52.4434 114.98 52.3819C115.106 52.3419 117.61 52.3022 120.545 52.2936C126.553 52.2762 126.747 52.2474 128.313 51.1453L129.173 50.54L131.949 50.5388C136.574 50.5366 138.192 50.2256 138.525 49.2745C138.884 48.2502 138.048 47.716 133.935 46.3403L131.557 45.545L133.065 44.4588C137.321 41.3925 138.538 39.6326 137.279 38.3678C136.765 37.8517 136.142 37.8698 134.42 38.4504ZM98.0453 39.5124C100.659 40.2582 102.913 41.6507 104.962 43.7858C106.561 45.4519 106.936 46.2907 106.958 48.2427C106.97 49.3114 106.91 49.6731 106.622 50.2633C106.068 51.3951 104.621 52.6274 102.548 53.7333C99.1326 55.5542 97.0451 57.1418 95.1929 59.3268C90.4769 64.8901 82.8153 68.0052 75.7184 67.2453C71.8979 66.8361 69.6864 66.0749 65.4265 63.7022C63.5552 62.6598 61.5818 61.9617 59.8389 61.7254C59.1556 61.6328 57.2947 61.4986 55.7032 61.4274C54.1119 61.356 52.6811 61.2226 52.5237 61.1309C52.3664 61.039 52.3182 60.9618 52.4165 60.9592C52.515 60.9567 52.8065 60.7762 53.0645 60.5581C53.6217 60.0873 53.6645 59.6166 53.2476 58.548C53.0904 58.1448 52.9134 57.591 52.8544 57.3171L52.7471 56.8194L53.9409 56.8231C54.9881 56.8264 55.9014 56.9532 56.7629 57.2148C56.953 57.2726 57.1881 57.0055 57.6777 56.1754C59.8366 52.5148 63.2576 48.9368 66.7832 46.652C67.3135 46.3083 67.478 46.261 67.5701 46.4259C67.8141 46.8629 68.7243 47.9217 69.1854 48.3049C69.4498 48.5245 70.1359 48.9277 70.7101 49.201C71.7146 49.6788 71.8233 49.6972 73.5838 49.6842C75.1044 49.6728 75.64 49.6015 76.7547 49.2615C78.2758 48.7977 79.6445 48.1463 80.7294 47.3701L81.4711 46.8395L82.4066 47.2976C83.7039 47.9328 84.3704 48.0883 85.7815 48.0849C87.2922 48.0814 88.0993 47.9002 89.3424 47.2856C91.9315 46.0054 93.6494 42.9813 93.4419 40.0689L93.3666 39.01L95.1392 39.0994C96.2307 39.1546 97.3475 39.3133 98.0453 39.5124ZM134.039 41.2193C133.745 41.477 132.854 42.1966 132.059 42.8184L130.612 43.9488L130.332 43.4011C130.179 43.0999 130.076 42.8297 130.105 42.8008C130.237 42.6681 134.285 40.739 134.42 40.7443C134.504 40.7477 134.332 40.9613 134.039 41.2193ZM133.633 48.243C133.851 48.3312 133.381 48.3797 132.247 48.3862C131.278 48.3915 130.532 48.3335 130.532 48.2526C130.532 48.1739 130.597 47.9371 130.677 47.7267L130.822 47.3438L132.063 47.7267C132.745 47.9373 133.452 48.1696 133.633 48.243ZM77.1226 71.3883C80.3471 72.7961 83.1157 74.2696 84.5372 75.3345C85.8453 76.3144 86.3166 77.6389 85.843 79.0035L85.6759 79.4853L85.3022 79.1902C84.358 78.4442 83.4833 78.6803 82.1603 80.0387L81.2836 80.9388V80.4629C81.2836 80.2013 81.1435 79.8082 80.9721 79.5893C80.4944 78.9793 79.8101 78.9258 78.3506 79.3846C77.6633 79.6007 77.0757 79.7523 77.045 79.7215C77.0145 79.6907 77.364 79.1256 77.8219 78.4656C78.9862 76.7873 79.3015 76.1026 79.3015 75.2526C79.3015 73.8276 78.2518 72.4997 76.0852 71.1838C75.5595 70.8647 75.1734 70.6034 75.2271 70.6034C75.2809 70.6034 76.1339 70.9566 77.1226 71.3883ZM85.7815 73.288C88.3214 74.9826 89.404 76.5057 89.4148 78.4002C89.421 79.4806 89.1981 80.0831 88.5765 80.666C88.252 80.9703 87.0775 81.5643 87.0775 81.4241C87.0775 81.3924 87.2939 80.8919 87.5584 80.3116C87.9235 79.5109 88.0569 78.97 88.1119 78.0673C88.1788 76.9667 88.1484 76.8046 87.7034 75.8967C87.0899 74.6447 85.9897 73.6254 83.9686 72.437C81.8633 71.199 81.7616 71.1132 83.2657 71.8442C83.9785 72.1907 85.1106 72.8404 85.7815 73.288ZM84.4855 81.6883C84.4855 81.9095 83.8547 82.5495 83.6367 82.5495C83.4054 82.5495 83.2307 82.1233 83.3642 81.8848C83.4188 81.7871 83.606 81.5485 83.78 81.3544C84.0763 81.0242 84.1091 81.0187 84.291 81.2688C84.398 81.4157 84.4855 81.6045 84.4855 81.6883Z" fill="#2F4F4F"/>
<path d="M0 121V98.216H7.968C10.976 98.216 13.44 99.56 14.912 102.056C16.032 103.976 16.128 104.84 16.128 109.608C16.128 114.728 15.872 115.624 14.848 117.224C13.504 119.336 11.136 121 7.744 121H0ZM3.456 101.48V117.736H7.584C9.536 117.736 10.912 117.064 11.808 115.752C12.576 114.6 12.672 113.96 12.672 109.736C12.672 105.64 12.576 104.648 11.648 103.4C10.592 101.96 9.44 101.48 7.584 101.48H3.456Z" fill="#2F4F4F"/>
<path d="M22.2683 109.608C22.2683 104.136 22.5243 103.464 23.2603 102.12C24.3482 100.136 26.8123 98.024 30.3963 98.024C33.9803 98.024 36.4443 100.136 37.5322 102.12C38.2682 103.464 38.5243 104.136 38.5243 109.608C38.5243 115.08 38.2682 115.752 37.5322 117.096C36.4443 119.08 33.9803 121.192 30.3963 121.192C26.8123 121.192 24.3482 119.08 23.2603 117.096C22.5243 115.752 22.2683 115.08 22.2683 109.608ZM25.7243 109.608C25.7243 114.28 25.9803 114.92 26.8763 116.072C27.5803 116.968 28.7643 117.736 30.3963 117.736C32.0283 117.736 33.2122 116.968 33.9163 116.072C34.8123 114.92 35.0683 114.28 35.0683 109.608C35.0683 104.936 34.8123 104.296 33.9163 103.144C33.2122 102.248 32.0283 101.48 30.3963 101.48C28.7643 101.48 27.5803 102.248 26.8763 103.144C25.9803 104.296 25.7243 104.936 25.7243 109.608Z" fill="#2F4F4F"/>
<path d="M45.4475 121V98.216H48.9035V117.736H60.0075V121H45.4475Z" fill="#2F4F4F"/>
<path d="M77.8207 114.632H81.4688C80.5728 118.888 77.3727 121.192 73.4688 121.192C69.8848 121.192 67.4207 119.08 66.3327 117.096C65.5967 115.752 65.3408 115.08 65.3408 109.608C65.3408 104.136 65.5967 103.464 66.3327 102.12C67.4207 100.136 69.8848 98.024 73.4688 98.024C77.7887 98.024 80.7648 101.064 81.4688 104.776H77.8207C77.2767 103.016 75.6448 101.48 73.4688 101.48C71.8367 101.48 70.6527 102.248 69.9487 103.144C69.0527 104.296 68.7968 104.936 68.7968 109.608C68.7968 114.28 69.0527 114.92 69.9487 116.072C70.6527 116.968 71.8367 117.736 73.4688 117.736C75.3887 117.736 76.8607 116.68 77.8207 114.632Z" fill="#2F4F4F"/>
<path d="M86.77 121V98.216H101.33V101.48H90.226V107.976H99.698V111.048H90.226V117.736H101.33V121H86.77Z" fill="#2F4F4F"/>
<path d="M123.151 121L115.631 98.216H119.279L124.463 115.56H124.527L129.711 98.216H133.359L125.839 121H123.151Z" fill="#2F4F4F"/>
<path d="M138.66 121V98.216H142.116V121H138.66Z" fill="#2F4F4F"/>
<path d="M153.662 121V101.288H147.422V98.216H163.358V101.288H157.118V121H153.662Z" fill="#2F4F4F"/>
<path d="M170.327 112.84H176.983L173.687 102.888H173.623L170.327 112.84ZM179.735 121L177.975 115.912H169.335L167.575 121H163.927L172.215 98.216H175.095L183.383 121H179.735Z" fill="#2F4F4F"/>
</svg>
