<svg width="186" height="28" viewBox="0 0 186 28" fill="none" xmlns="http://www.w3.org/2000/svg">
<path d="M2.4 26V3.216H10.368C13.376 3.216 15.84 4.56 17.312 7.056C18.432 8.976 18.528 9.84 18.528 14.608C18.528 19.728 18.272 20.624 17.248 22.224C15.904 24.336 13.536 26 10.144 26H2.4ZM5.856 6.48V22.736H9.984C11.936 22.736 13.312 22.064 14.208 20.752C14.976 19.6 15.072 18.96 15.072 14.736C15.072 10.64 14.976 9.648 14.048 8.4C12.992 6.96 11.84 6.48 9.984 6.48H5.856ZM24.6683 14.608C24.6683 9.136 24.9243 8.464 25.6603 7.12C26.7483 5.136 29.2123 3.024 32.7963 3.024C36.3803 3.024 38.8443 5.136 39.9323 7.12C40.6683 8.464 40.9243 9.136 40.9243 14.608C40.9243 20.08 40.6683 20.752 39.9323 22.096C38.8443 24.08 36.3803 26.192 32.7963 26.192C29.2123 26.192 26.7483 24.08 25.6603 22.096C24.9243 20.752 24.6683 20.08 24.6683 14.608ZM28.1243 14.608C28.1243 19.28 28.3803 19.92 29.2763 21.072C29.9803 21.968 31.1643 22.736 32.7963 22.736C34.4283 22.736 35.6123 21.968 36.3163 21.072C37.2123 19.92 37.4683 19.28 37.4683 14.608C37.4683 9.936 37.2123 9.296 36.3163 8.144C35.6123 7.248 34.4283 6.48 32.7963 6.48C31.1643 6.48 29.9803 7.248 29.2763 8.144C28.3803 9.296 28.1243 9.936 28.1243 14.608ZM47.8475 26V3.216H51.3035V22.736H62.4075V26H47.8475ZM80.2207 19.632H83.8687C82.9727 23.888 79.7727 26.192 75.8687 26.192C72.2847 26.192 69.8207 24.08 68.7327 22.096C67.9967 20.752 67.7407 20.08 67.7407 14.608C67.7407 9.136 67.9967 8.464 68.7327 7.12C69.8207 5.136 72.2847 3.024 75.8687 3.024C80.1888 3.024 83.1648 6.064 83.8687 9.776H80.2207C79.6768 8.016 78.0448 6.48 75.8687 6.48C74.2367 6.48 73.0527 7.248 72.3487 8.144C71.4527 9.296 71.1967 9.936 71.1967 14.608C71.1967 19.28 71.4527 19.92 72.3487 21.072C73.0527 21.968 74.2367 22.736 75.8687 22.736C77.7887 22.736 79.2607 21.68 80.2207 19.632ZM89.17 26V3.216H103.73V6.48H92.626V12.976H102.098V16.048H92.626V22.736H103.73V26H89.17ZM125.551 26L118.031 3.216H121.679L126.863 20.56H126.927L132.111 3.216H135.759L128.239 26H125.551ZM141.06 26V3.216H144.516V26H141.06ZM156.062 26V6.288H149.822V3.216H165.758V6.288H159.518V26H156.062ZM172.727 17.84H179.383L176.087 7.888H176.023L172.727 17.84ZM182.135 26L180.375 20.912H171.735L169.975 26H166.327L174.615 3.216H177.495L185.783 26H182.135Z" fill="#2F4F4F"/>
</svg>
