<svg width="275" height="67" viewBox="0 0 275 67" fill="none" xmlns="http://www.w3.org/2000/svg">
<path fill-rule="evenodd" clip-rule="evenodd" d="M31.2571 0.158917C30.2981 0.691666 30.3275 1.61942 31.3939 4.49865C31.831 5.67872 32.2786 6.95536 32.3885 7.33563C32.4986 7.71591 32.6162 8.09993 32.6497 8.18914C32.6915 8.29972 32.5537 8.27099 32.2158 8.0986C31.4735 7.71989 30.8116 7.76094 30.3586 8.21401C29.9989 8.57376 29.992 8.60298 30.0487 9.51178C30.09 10.1718 30.2649 10.9201 30.6518 12.0913L31.1968 13.7412L30.7243 13.4949C30.2158 13.2298 29.5602 13.2512 29.2069 13.5443C28.9446 13.7618 28.6932 14.4042 28.6932 14.8568C28.6932 15.525 29.0561 16.6855 29.6672 17.972C29.9945 18.6611 30.2624 19.245 30.2624 19.2698C30.2624 19.2944 30.1274 19.3146 29.9626 19.3146C29.4871 19.3146 28.9309 19.8954 28.8535 20.4728C28.7712 21.0863 29.1317 22.5629 29.7103 23.9821L30.1335 25.0202L29.6246 24.9506C26.8505 24.5708 18.8795 24.5555 15.5361 24.9235C10.9744 25.4254 6.31484 26.3977 2.37907 27.6689C1.5492 27.9369 0.728517 28.2287 0.555303 28.3172C-0.136228 28.6706 -0.191874 29.7448 0.444614 30.4565L0.790561 30.8436L4.87408 30.8579C7.78397 30.8682 9.21278 30.9202 9.8454 31.039L10.7331 31.2058L10.9566 31.796C11.218 32.4861 11.5693 32.8959 12.1563 33.1949C12.897 33.5723 15.1881 34.2541 16.6225 34.5241C17.386 34.6678 18.1978 34.8233 18.4267 34.8698L18.8428 34.9542L17.7988 35.6561C15.2956 37.3392 12.6901 39.9747 11.1591 42.3726L10.658 43.1573H9.02327C7.14024 43.1573 6.66199 43.2886 6.4201 43.8722C6.26161 44.2547 6.32124 44.9691 6.59367 45.9506C6.78246 46.6305 6.77099 46.661 6.23409 46.9031C5.22679 47.3574 4.86913 48.2536 5.41702 48.9503C5.95996 49.6407 7.30548 49.9441 10.4978 50.0959C14.0401 50.2644 15.102 50.5045 17.0735 51.5822C18.0983 52.1424 18.1947 52.2266 18.2667 52.6241C18.4288 53.5185 19.0021 54.3127 19.8816 54.8609C20.114 55.0056 21.1732 55.4935 22.2354 55.9448C24.8261 57.0458 25.9273 57.6287 26.6577 58.2854C27.6665 59.1924 27.6608 59.2397 26.3172 61.1761C25.0679 62.9764 24.9407 63.5796 25.6636 64.2723C26.1294 64.7187 26.7361 64.778 27.7862 64.4796C28.25 64.3479 28.6453 64.2559 28.6647 64.2753C28.684 64.2947 28.6406 64.467 28.5679 64.6581C28.1442 65.7725 29.3861 66.7934 30.4782 66.2286C30.9375 65.991 30.9866 65.9887 30.9866 66.2046C30.9866 66.4621 31.6894 67 32.0258 67C32.4835 67 33.0191 66.7255 33.9828 65.9968C34.8013 65.378 34.8936 65.3379 35.2285 65.4546C36.1712 65.7834 37.3532 65.2536 38.0765 64.1782C38.6092 63.3863 38.7462 62.7869 38.6898 61.4948C38.6485 60.5471 38.5859 60.2815 38.2343 59.5633C37.4739 58.0099 35.478 56.348 32.8138 55.0499C32.2072 54.7543 31.7109 54.4771 31.7109 54.4337C31.7109 54.3904 31.9418 54.3185 32.2239 54.2738C33.1158 54.1327 35.4918 53.2808 36.7372 52.6557C38.9869 51.5267 40.0342 50.7285 42.4555 48.298C44.7826 45.9618 45.7275 45.2216 47.767 44.1373C49.5973 43.1642 52.34 42.2082 54.572 41.7651L55.2833 41.624L55.2141 39.9158C55.144 38.1836 54.7438 35.4539 54.5205 35.1848C54.4534 35.1039 54.2231 35.0033 54.0089 34.9614C53.7945 34.9197 53.1176 34.6919 52.5044 34.4554C51.5213 34.0762 51.2524 33.9015 50.2292 32.9777C48.7348 31.6285 47.8469 31.006 46.4706 30.3421C45.4295 29.84 43.3676 29.2138 42.7552 29.2138C42.5529 29.2138 42.4664 29.1255 42.4143 28.8658C42.2743 28.1655 42.541 27.6832 43.803 26.3543C45.1893 24.8946 45.6329 24.1018 45.899 22.6087C46.2136 20.8438 46.0937 19.3943 45.4058 16.6467C44.2125 11.8808 42.2842 8.34005 39.0762 5.02476C37.2214 3.10781 35.6061 1.83853 33.4662 0.616456C32.333 -0.0306173 31.798 -0.141441 31.2571 0.158917ZM33.2529 2.43744C36.9863 4.76871 39.9041 7.91703 41.8354 11.6979C42.6393 13.2717 43.2367 14.9128 43.8168 17.1416C44.2747 18.9004 44.3042 19.1179 44.3098 20.7632C44.3178 23.1348 44.1747 23.4986 42.5727 25.1833C41.173 26.6552 40.7639 27.381 40.7639 28.3924V29.0931H40.1604C39.8284 29.0931 39.5568 29.0448 39.5568 28.9857C39.5568 28.9266 39.3187 28.5546 39.0275 28.1591C38.0039 26.7685 36.3219 25.94 33.5657 25.4687C32.7871 25.3355 32.1393 25.2138 32.1261 25.1981C31.8927 24.9214 30.6245 21.7972 30.6245 21.4991C30.6245 21.4314 30.8161 21.4592 31.0641 21.5629C31.5786 21.7778 31.97 21.7086 32.311 21.3426C32.7649 20.8555 32.6613 20.4355 31.4382 17.8055C31.006 16.876 30.6127 15.9796 30.5644 15.8136C30.4845 15.5387 30.519 15.5525 30.9524 15.9687C31.7476 16.7328 32.7184 16.7076 33.0469 15.9144C33.2953 15.3148 33.1049 14.1831 32.3829 11.9661C32.0072 10.8127 31.7219 9.84703 31.7488 9.8201C31.7757 9.79306 32.0824 9.96268 32.4303 10.1968C33.0943 10.6437 33.4375 10.7107 33.925 10.4885C34.912 10.0387 34.5774 8.09667 32.6296 2.97248C32.3116 2.13587 32.262 1.93052 32.3778 1.93052C32.4125 1.93052 32.8063 2.15869 33.2529 2.43744ZM28.9346 26.5488C32.5675 26.9206 35.0096 27.3798 36.1267 27.9013C38.4679 28.9942 39.3089 32.1669 37.8379 34.3563C37.0207 35.5723 35.693 36.26 34.1861 36.2479C33.2463 36.2404 32.5553 36.0163 31.7144 35.4466C30.9417 34.923 30.5778 34.9617 29.6472 35.6657C28.1378 36.8078 26.0846 37.5437 24.4081 37.5437C22.5397 37.5437 21.1515 36.3351 20.8431 34.4398C20.7818 34.0629 20.6605 33.6835 20.5736 33.5967C20.4867 33.5097 19.2771 33.2238 17.8853 32.9609C15.0708 32.4296 13.3356 31.9722 12.8806 31.6417C12.6645 31.4846 12.5601 31.2717 12.5129 30.8915C12.3783 29.8069 12.277 29.7489 9.8629 29.3708C8.80611 29.2054 7.84661 29.1572 5.84372 29.1693C4.39656 29.178 3.22957 29.1681 3.25045 29.1472C3.27121 29.1264 3.96636 28.919 4.79514 28.6865C8.94601 27.5215 12.9333 26.8258 17.9503 26.3908C19.0282 26.2974 27.6966 26.422 28.9346 26.5488ZM72.6909 30.3079C72.0934 30.5086 70.8052 31.0705 69.8284 31.5568L68.0522 32.441L67.6109 32.1411C66.4236 31.3342 64.5041 31.1356 63.175 31.6822C62.1685 32.0961 61.5661 32.5494 60.9043 33.3907C59.9878 34.5557 59.0905 35.045 57.5019 35.2462C57.0483 35.3036 56.6568 35.3708 56.6322 35.3955C56.6074 35.4203 56.6702 35.9002 56.7717 36.4619C56.8732 37.0237 56.993 38.3525 57.038 39.4149C57.1073 41.053 57.1472 41.3378 57.3008 41.2892C57.4004 41.2577 59.383 41.2265 61.7066 41.2197C66.4628 41.2059 66.6162 41.1832 67.8563 40.3145L68.5373 39.8374L70.7348 39.8365C74.396 39.8348 75.6772 39.5896 75.9407 38.8399C76.2247 38.0325 75.5633 37.6114 72.3071 36.5271L70.4244 35.9002L71.618 35.044C74.9871 32.627 75.9512 31.2398 74.9544 30.2429C74.5476 29.836 74.054 29.8503 72.6909 30.3079ZM43.8942 31.145C45.9632 31.733 47.7474 32.8306 49.3697 34.5136C50.6355 35.8268 50.933 36.488 50.9504 38.0266C50.9599 38.869 50.9122 39.1541 50.6837 39.6193C50.2457 40.5114 49.1003 41.4827 47.4584 42.3545C44.755 43.7898 43.1024 45.0412 41.636 46.7635C37.9026 51.1486 31.8371 53.6041 26.2187 53.0051C23.1942 52.6825 21.4434 52.0826 18.071 50.2123C16.5895 49.3907 15.0272 48.8404 13.6474 48.6542C13.1065 48.5811 11.6333 48.4754 10.3734 48.4192C9.11355 48.363 7.98084 48.2578 7.85627 48.1855C7.7317 48.1131 7.69356 48.0522 7.77141 48.0502C7.84939 48.0482 8.08018 47.9059 8.28442 47.734C8.72548 47.3629 8.7594 46.9919 8.42939 46.1496C8.30494 45.8318 8.1648 45.3952 8.11808 45.1794L8.03311 44.787L8.97824 44.7899C9.80726 44.7926 10.5303 44.8926 11.2123 45.0988C11.3628 45.1443 11.5489 44.9337 11.9365 44.2794C13.6456 41.394 16.3539 38.5737 19.145 36.7728C19.5649 36.5019 19.6951 36.4646 19.768 36.5946C19.9611 36.939 20.6818 37.7735 21.0468 38.0756C21.2561 38.2487 21.7993 38.5666 22.2538 38.7819C23.0491 39.1586 23.1351 39.1731 24.5288 39.1628C25.7326 39.1539 26.1567 39.0976 27.0392 38.8296C28.2433 38.4641 29.3269 37.9506 30.1857 37.3388L30.773 36.9205L31.5135 37.2816C32.5406 37.7824 33.0682 37.9049 34.1854 37.9022C35.3813 37.8995 36.0202 37.7566 37.0044 37.2722C39.0541 36.2631 40.4141 33.8794 40.2498 31.5837L40.1902 30.7491L41.5935 30.8196C42.4577 30.863 43.3417 30.9881 43.8942 31.145ZM72.3892 32.4905C72.1568 32.6937 71.4514 33.2608 70.8214 33.7509L69.6763 34.642L69.4548 34.2103C69.333 33.9728 69.252 33.7599 69.2748 33.7371C69.3793 33.6325 72.5841 32.1119 72.6909 32.1161C72.7573 32.1188 72.6215 32.2872 72.3892 32.4905ZM72.068 38.0268C72.2404 38.0964 71.8686 38.1346 70.9709 38.1397C70.2036 38.1439 69.6129 38.0982 69.6129 38.0344C69.6129 37.9724 69.6646 37.7857 69.7276 37.6199L69.8424 37.3181L70.8247 37.6199C71.3651 37.7859 71.9246 37.969 72.068 38.0268ZM27.3304 56.2708C29.8831 57.3805 32.0749 58.5419 33.2003 59.3813C34.2358 60.1537 34.6089 61.1977 34.234 62.2734L34.1017 62.6531L33.8059 62.4205C33.0585 61.8325 32.366 62.0186 31.3186 63.0893L30.6245 63.7988V63.4237C30.6245 63.2175 30.5136 62.9076 30.3779 62.7351C29.9997 62.2543 29.458 62.2121 28.3026 62.5737C27.7584 62.7441 27.2932 62.8636 27.269 62.8393C27.2448 62.815 27.5215 62.3696 27.884 61.8494C28.8057 60.5265 29.0553 59.9867 29.0553 59.3167C29.0553 58.1935 28.2244 57.1469 26.5091 56.1096C26.0929 55.858 25.7873 55.6521 25.8298 55.6521C25.8724 55.6521 26.5476 55.9305 27.3304 56.2708ZM34.1854 57.7682C36.1961 59.1039 37.0531 60.3045 37.0617 61.7978C37.0667 62.6494 36.8902 63.1243 36.3981 63.5838C36.1412 63.8237 35.2114 64.2918 35.2114 64.1814C35.2114 64.1564 35.3827 63.7619 35.5921 63.3044C35.8811 62.6733 35.9867 62.2469 36.0303 61.5354C36.0833 60.6679 36.0591 60.5401 35.7069 59.8245C35.2212 58.8376 34.3501 58.0342 32.7502 57.0974C31.0834 56.1216 31.0029 56.054 32.1937 56.6302C32.758 56.9032 33.6543 57.4154 34.1854 57.7682ZM33.1594 64.3896C33.1594 64.5639 32.66 65.0684 32.4874 65.0684C32.3043 65.0684 32.1659 64.7325 32.2717 64.5445C32.3149 64.4675 32.4631 64.2794 32.6009 64.1264C32.8354 63.8662 32.8613 63.8618 33.0053 64.059C33.0901 64.1747 33.1594 64.3236 33.1594 64.3896Z" fill="#2F4F4F"/>
<path d="M91.4 49V26.216H99.368C102.376 26.216 104.84 27.56 106.312 30.056C107.432 31.976 107.528 32.84 107.528 37.608C107.528 42.728 107.272 43.624 106.248 45.224C104.904 47.336 102.536 49 99.144 49H91.4ZM94.856 29.48V45.736H98.984C100.936 45.736 102.312 45.064 103.208 43.752C103.976 42.6 104.072 41.96 104.072 37.736C104.072 33.64 103.976 32.648 103.048 31.4C101.992 29.96 100.84 29.48 98.984 29.48H94.856ZM113.668 37.608C113.668 32.136 113.924 31.464 114.66 30.12C115.748 28.136 118.212 26.024 121.796 26.024C125.38 26.024 127.844 28.136 128.932 30.12C129.668 31.464 129.924 32.136 129.924 37.608C129.924 43.08 129.668 43.752 128.932 45.096C127.844 47.08 125.38 49.192 121.796 49.192C118.212 49.192 115.748 47.08 114.66 45.096C113.924 43.752 113.668 43.08 113.668 37.608ZM117.124 37.608C117.124 42.28 117.38 42.92 118.276 44.072C118.98 44.968 120.164 45.736 121.796 45.736C123.428 45.736 124.612 44.968 125.316 44.072C126.212 42.92 126.468 42.28 126.468 37.608C126.468 32.936 126.212 32.296 125.316 31.144C124.612 30.248 123.428 29.48 121.796 29.48C120.164 29.48 118.98 30.248 118.276 31.144C117.38 32.296 117.124 32.936 117.124 37.608ZM136.848 49V26.216H140.304V45.736H151.408V49H136.848ZM169.221 42.632H172.869C171.973 46.888 168.773 49.192 164.869 49.192C161.285 49.192 158.821 47.08 157.733 45.096C156.997 43.752 156.741 43.08 156.741 37.608C156.741 32.136 156.997 31.464 157.733 30.12C158.821 28.136 161.285 26.024 164.869 26.024C169.189 26.024 172.165 29.064 172.869 32.776H169.221C168.677 31.016 167.045 29.48 164.869 29.48C163.237 29.48 162.053 30.248 161.349 31.144C160.453 32.296 160.197 32.936 160.197 37.608C160.197 42.28 160.453 42.92 161.349 44.072C162.053 44.968 163.237 45.736 164.869 45.736C166.789 45.736 168.261 44.68 169.221 42.632ZM178.17 49V26.216H192.73V29.48H181.626V35.976H191.098V39.048H181.626V45.736H192.73V49H178.17ZM214.551 49L207.031 26.216H210.679L215.863 43.56H215.927L221.111 26.216H224.759L217.239 49H214.551ZM230.06 49V26.216H233.516V49H230.06ZM245.062 49V29.288H238.822V26.216H254.758V29.288H248.518V49H245.062ZM261.727 40.84H268.383L265.087 30.888H265.023L261.727 40.84ZM271.135 49L269.375 43.912H260.735L258.975 49H255.327L263.615 26.216H266.495L274.783 49H271.135Z" fill="#2F4F4F"/>
</svg>
