<svg width="130" height="130" viewBox="0 0 130 130" fill="none" xmlns="http://www.w3.org/2000/svg">
<rect width="130" height="130" fill="white"/>
<path fill-rule="evenodd" clip-rule="evenodd" d="M55.1195 13.2443C53.6432 14.0633 53.6883 15.4896 55.3301 19.9158C56.003 21.73 56.692 23.6926 56.8613 24.2772C57.0308 24.8618 57.2118 25.4521 57.2634 25.5893C57.3277 25.7593 57.1155 25.7151 56.5954 25.4501C55.4526 24.8679 54.4337 24.931 53.7363 25.6275C53.1825 26.1806 53.1719 26.2255 53.2592 27.6226C53.3228 28.6372 53.5921 29.7877 54.1876 31.5881L55.0266 34.1245L54.2993 33.7459C53.5164 33.3383 52.5072 33.3712 51.9633 33.8218C51.5595 34.1562 51.1724 35.1437 51.1724 35.8395C51.1724 36.8667 51.731 38.6508 52.6719 40.6286C53.1758 41.688 53.5882 42.5857 53.5882 42.6237C53.5882 42.6616 53.3804 42.6926 53.1266 42.6926C52.3946 42.6926 51.5383 43.5854 51.4192 44.4731C51.2925 45.4162 51.8475 47.6862 52.7382 49.868L53.3897 51.4638L52.6063 51.3569C48.3356 50.7731 36.0645 50.7495 30.9175 51.3152C23.8948 52.0869 16.7215 53.5816 10.6625 55.5358C9.38496 55.9478 8.12153 56.3964 7.85487 56.5324C6.79028 57.0757 6.70462 58.727 7.68447 59.8213L8.21705 60.4163L14.5035 60.4383C18.9832 60.4541 21.1828 60.5341 22.1567 60.7167L23.5233 60.973L23.8674 61.8804C24.2698 62.9414 24.8107 63.5713 25.7144 64.031C26.8546 64.6111 30.3817 65.6593 32.5899 66.0743C33.7652 66.2953 35.0151 66.5344 35.3674 66.6058L36.008 66.7355L34.4008 67.8146C30.5471 70.402 26.5361 74.4536 24.1791 78.14L23.4077 79.3463H20.8911C17.9922 79.3463 17.256 79.5482 16.8836 80.4453C16.6396 81.0333 16.7314 82.1316 17.1508 83.6404C17.4414 84.6857 17.4238 84.7326 16.5972 85.1047C15.0465 85.8031 14.4959 87.1809 15.3394 88.2519C16.1752 89.3133 18.2466 89.7797 23.1611 90.0132C28.6144 90.2721 30.2491 90.6412 33.2841 92.2979C34.8618 93.1593 35.0103 93.2886 35.121 93.8998C35.3706 95.2748 36.2533 96.4956 37.6072 97.3383C37.9649 97.5609 39.5955 98.3108 41.2308 99.0047C45.2191 100.697 46.9144 101.593 48.0389 102.603C49.5918 103.997 49.5831 104.07 47.5146 107.047C45.5914 109.815 45.3955 110.742 46.5084 111.807C47.2255 112.493 48.1595 112.584 49.7761 112.125C50.4901 111.923 51.0987 111.781 51.1286 111.811C51.1583 111.841 51.0914 112.106 50.9795 112.4C50.3273 114.113 52.2391 115.682 53.9204 114.814C54.6275 114.449 54.7031 114.445 54.7031 114.777C54.7031 115.173 55.785 116 56.3029 116C57.0075 116 57.832 115.578 59.3157 114.458C60.5757 113.506 60.7177 113.445 61.2334 113.624C62.6847 114.13 64.5043 113.315 65.6177 111.662C66.4378 110.445 66.6487 109.523 66.5619 107.537C66.4984 106.08 66.4019 105.672 65.8606 104.567C64.6901 102.179 61.6175 99.6246 57.5159 97.629C56.5822 97.1745 55.8181 96.7483 55.8181 96.6817C55.8181 96.6151 56.1735 96.5045 56.6078 96.4358C57.9809 96.2189 61.6387 94.9094 63.556 93.9484C67.0192 92.2128 68.6317 90.9857 72.3591 87.2492C75.9416 83.6577 77.3963 82.5198 80.536 80.8529C83.3537 79.3569 87.576 77.8872 91.0121 77.2061L92.1072 76.9891L92.0007 74.363C91.8927 71.7002 91.2767 67.5037 90.9329 67.09C90.8296 66.9657 90.475 66.8111 90.1452 66.7467C89.8152 66.6825 88.7731 66.3323 87.8291 65.9687C86.3157 65.3858 85.9017 65.1172 84.3265 63.6971C82.0259 61.623 80.659 60.6659 78.5402 59.6453C76.9375 58.8735 73.7632 57.9108 72.8205 57.9108C72.5091 57.9108 72.3758 57.775 72.2958 57.3758C72.0802 56.2992 72.4907 55.5577 74.4335 53.5148C76.5677 51.2708 77.2506 50.0521 77.6603 47.7567C78.1446 45.0434 77.9601 42.815 76.9011 38.5912C75.064 31.2646 72.0954 25.8213 67.1568 20.7246C64.3014 17.7777 61.8146 15.8264 58.5203 13.9477C56.7758 12.9529 55.9522 12.7826 55.1195 13.2443ZM58.192 16.7471C63.9394 20.331 68.4313 25.171 71.4045 30.9834C72.6421 33.4027 73.5618 35.9256 74.4549 39.352C75.1597 42.0558 75.2052 42.3902 75.2138 44.9196C75.226 48.5655 75.0058 49.1247 72.5396 51.7146C70.3847 53.9774 69.755 55.0932 69.755 56.6481V57.7252H68.8258C68.3148 57.7252 67.8967 57.651 67.8967 57.56C67.8967 57.4693 67.5301 56.8973 67.0819 56.2893C65.5061 54.1515 62.9166 52.8778 58.6735 52.1533C57.4749 51.9486 56.4776 51.7615 56.4573 51.7374C56.0979 51.312 54.1456 46.5092 54.1456 46.0508C54.1456 45.9468 54.4405 45.9895 54.8224 46.149C55.6144 46.4793 56.217 46.373 56.742 45.8103C57.4407 45.0614 57.2813 44.4157 55.3983 40.3727C54.7328 38.9437 54.1274 37.5657 54.0531 37.3105C53.9301 36.8879 53.9832 36.9091 54.6503 37.549C55.8746 38.7236 57.3691 38.6848 57.8748 37.4655C58.2572 36.5436 57.9642 34.8039 56.8526 31.3956C56.2743 29.6225 55.835 28.138 55.8764 28.0966C55.9179 28.055 56.39 28.3158 56.9256 28.6756C57.9478 29.3627 58.4761 29.4657 59.2267 29.1242C60.7462 28.4327 60.231 25.4471 57.2324 17.5696C56.7429 16.2835 56.6665 15.9678 56.8447 15.9678C56.8983 15.9678 57.5044 16.3186 58.192 16.7471ZM51.5441 53.8138C57.1369 54.3854 60.8963 55.0913 62.6161 55.8931C66.2204 57.5732 67.515 62.4507 65.2504 65.8163C63.9923 67.6858 61.9484 68.7431 59.6286 68.7243C58.1818 68.7128 57.1181 68.3683 55.8235 67.4926C54.634 66.6877 54.0737 66.747 52.641 67.8294C50.3174 69.5851 47.1566 70.7164 44.5756 70.7164C41.6992 70.7164 39.5623 68.8585 39.0875 65.9447C38.9931 65.3653 38.8063 64.782 38.6725 64.6486C38.5387 64.515 36.6766 64.0753 34.534 63.6713C30.2011 62.8545 27.5299 62.1513 26.8293 61.6432C26.4967 61.4017 26.3359 61.0744 26.2633 60.4899C26.0561 58.8226 25.9002 58.7333 22.1837 58.1521C20.5568 57.8978 19.0797 57.8238 15.9963 57.8423C13.7684 57.8557 11.9718 57.8405 12.004 57.8084C12.0359 57.7764 13.1061 57.4576 14.382 57.1002C20.7722 55.3092 26.9105 54.2397 34.634 53.571C36.2934 53.4274 49.6383 53.6189 51.5441 53.8138ZM118.906 59.5928C117.986 59.9012 116.003 60.7652 114.499 61.5127L111.765 62.872L111.085 62.411C109.257 61.1705 106.302 60.8652 104.256 61.7055C102.707 62.3417 101.779 63.0386 100.76 64.332C99.3497 66.1229 97.9683 66.8751 95.5226 67.1845C94.8243 67.2726 94.2217 67.376 94.1838 67.4141C94.1457 67.4521 94.2423 68.1898 94.3986 69.0534C94.5548 69.9171 94.7392 71.9599 94.8085 73.593C94.9152 76.1113 94.9767 76.5491 95.213 76.4745C95.3663 76.426 98.4185 76.378 101.996 76.3676C109.318 76.3464 109.554 76.3115 111.463 74.976L112.511 74.2426L115.894 74.2411C121.531 74.2385 123.503 73.8616 123.909 72.7091C124.346 71.4679 123.328 70.8205 118.315 69.1536L115.417 68.1898L117.254 66.8736C122.441 63.158 123.925 61.0254 122.39 59.4928C121.764 58.8673 121.004 58.8892 118.906 59.5928ZM74.574 60.8797C77.7592 61.7835 80.5059 63.4709 83.0034 66.0581C84.9519 68.077 85.41 69.0934 85.4368 71.4588C85.4515 72.7538 85.378 73.1922 85.0263 73.9072C84.3519 75.2787 82.5886 76.772 80.061 78.1121C75.8991 80.3186 73.355 82.2424 71.0976 84.8902C65.35 91.6315 56.0124 95.4064 47.363 94.4855C42.7068 93.9896 40.0116 93.0672 34.8198 90.1921C32.5392 88.929 30.134 88.083 28.0099 87.7967C27.1772 87.6844 24.9092 87.5218 22.9695 87.4355C21.0301 87.349 19.2863 87.1874 19.0945 87.0762C18.9027 86.9649 18.844 86.8713 18.9639 86.8682C19.0839 86.8652 19.4392 86.6464 19.7536 86.3821C20.4326 85.8116 20.4849 85.2413 19.9768 83.9465C19.7852 83.4578 19.5695 82.7867 19.4976 82.4549L19.3668 81.8517L20.8218 81.8562C22.098 81.8603 23.2111 82.0139 24.261 82.3309C24.4927 82.4009 24.7793 82.0772 25.376 81.0713C28.0071 76.6356 32.1764 72.2999 36.4733 69.5312C37.1196 69.1148 37.3201 69.0574 37.4323 69.2573C37.7296 69.7868 38.839 71.0698 39.401 71.5341C39.7232 71.8003 40.5594 72.2889 41.2592 72.62C42.4834 73.199 42.6159 73.2213 44.7615 73.2055C46.6147 73.1918 47.2675 73.1053 48.6261 72.6933C50.4799 72.1313 52.148 71.342 53.4702 70.4015L54.3742 69.7584L55.5142 70.3135C57.0954 71.0833 57.9077 71.2717 59.6275 71.2676C61.4686 71.2633 62.4522 71.0438 63.9673 70.299C67.1228 68.7477 69.2164 65.0833 68.9635 61.5541L68.8717 60.2709L71.0321 60.3793C72.3625 60.4461 73.7235 60.6384 74.574 60.8797ZM118.441 62.9481C118.083 63.2604 116.998 64.1323 116.028 64.8858L114.265 66.2556L113.924 65.5919C113.736 65.2269 113.612 64.8995 113.647 64.8644C113.808 64.7037 118.741 62.366 118.906 62.3725C119.008 62.3766 118.799 62.6355 118.441 62.9481ZM117.947 71.4591C118.212 71.566 117.64 71.6249 116.258 71.6327C115.077 71.6392 114.167 71.5688 114.167 71.4708C114.167 71.3754 114.247 71.0885 114.344 70.8335L114.52 70.3696L116.033 70.8335C116.865 71.0887 117.726 71.3702 117.947 71.4591ZM49.0745 99.5058C53.0043 101.212 56.3785 102.997 58.111 104.288C59.7052 105.475 60.2795 107.08 59.7024 108.734L59.4987 109.318L59.0432 108.96C57.8926 108.056 56.8265 108.342 55.2141 109.988L54.1456 111.079V110.502C54.1456 110.185 53.9749 109.709 53.766 109.444C53.1838 108.704 52.3498 108.64 50.5711 109.195C49.7334 109.457 49.0172 109.641 48.9799 109.604C48.9427 109.566 49.3686 108.882 49.9267 108.082C51.3456 106.048 51.7299 105.218 51.7299 104.188C51.7299 102.462 50.4507 100.853 47.8101 99.2581C47.1694 98.8713 46.6989 98.5547 46.7643 98.5547C46.8299 98.5547 47.8694 98.9827 49.0745 99.5058ZM59.6275 101.808C62.723 103.861 64.0423 105.707 64.0555 108.003C64.0631 109.312 63.7915 110.042 63.0338 110.748C62.6384 111.117 61.207 111.837 61.207 111.667C61.207 111.628 61.4707 111.022 61.7931 110.319C62.238 109.349 62.4006 108.693 62.4676 107.599C62.5492 106.266 62.5121 106.069 61.9698 104.969C61.2221 103.452 59.8811 102.217 57.418 100.777C54.8521 99.2764 54.7282 99.1725 56.5614 100.058C57.4301 100.478 58.8099 101.265 59.6275 101.808ZM58.048 111.987C58.048 112.255 57.2792 113.031 57.0135 113.031C56.7316 113.031 56.5186 112.514 56.6814 112.225C56.7479 112.107 56.9761 111.818 57.1882 111.582C57.5492 111.182 57.5892 111.176 57.8109 111.479C57.9413 111.657 58.048 111.886 58.048 111.987Z" fill="black"/>
</svg>
